# xmcd
#
# Track frame offsets: 
#        150
#        12586
#        26348
#        39496
#        53222
#        68821
#        80310
#        94358
#        106264
#        119354
#        133121
#        146461
#        159965
#        174477
#        187655
#        198523
#        213320
#        236075
#        248706
#        280338
#        294698
#        307967
#        323244
#
# Disc length: 4671 seconds
#
# Revision: 2
# Processed by: cddbd v1.5.2PL0 Copyright (c) Steve Scherf et al.
# Submitted via: ExactAudioCopyFreeDBPlugin 1.0
#
DISCID=44123d17
DTITLE=Various Artist - Does Anybody Know I'm Here?:  Vietnam Through
DTITLE=the Eyes of Black America, 1962-1972 [Kent Soul]
DYEAR=2005
DGENRE=Soul
TTITLE0=Marvin Gaye - Soldier's Plea
TTITLE1=Brothers of Soul - Wait for Me
TTITLE2=The Velvettes - Your Heart Belongs to Me
TTITLE3=William Bell - Soldier's Goodbye
TTITLE4=King Solomon - Please Mr. President
TTITLE5=The Charmels - Please Uncle Sam (Send Back My Man)
TTITLE6=Archie Bell and The Drells - A Soldier's Prayer
TTITLE7=Tony Mason - Take Good Care
TTITLE8=J.W. Alexander - Keep a Light in the Window Until I Come Home
TTITLE9=The Impressions - Don't Cry My Love
TTITLE10=The Masters of Soul - Please Wait for Me (My Darling)
TTITLE11=Thelma Houston - Don't Cry My Soldier Boy
TTITLE12=The Temptations - War
TTITLE13=The Sweet Inspirations - Am I Ever Gonna See My Baby Again?
TTITLE14=Watson and The Sherlocks - Standing on the Corner
TTITLE15=The Dells - Does Anybody Know I'm Here?
TTITLE16=Melverine Thomas - A Letter from My Son
TTITLE17=Joe Tex - I Can't See You No More (When Johnny Comes Marching
TTITLE17=Home)
TTITLE18=Inez and Charley Foxx - Medley:  Vaya Con Dios - Fellows in Vie
TTITLE18=tnam
TTITLE19=Roy C - Open Letter to the President
TTITLE20=Martha Reeves and The Vandellas - I Should Be Proud
TTITLE21=Bill Moss and The Celestials - Welcome the Boys Back Home
TTITLE22=Funkadelic - March to the Witch's Castle
EXTD=More astute observation and acerbic commentary on the role of bla
EXTD=ck america in vietnam (Ace Records UK)
EXTT0=mono
EXTT1=mono
EXTT2=2004 stereo
EXTT3=mono
EXTT4=mono
EXTT5=mono
EXTT6=mono
EXTT7=mono
EXTT8=mono
EXTT9=stereo
EXTT10=mono
EXTT11=stereo
EXTT12=stereo
EXTT13=stereo
EXTT14=mono
EXTT15=stereo
EXTT16=mono
EXTT17=mono
EXTT18=stereo
EXTT19=stereo
EXTT20=mono
EXTT21=mono
EXTT22=stereo
PLAYORDER=
